<?xml version="1.0"?>
<svg width="1028" height="439" xmlns="http://www.w3.org/2000/svg" xmlns:svg="http://www.w3.org/2000/svg">
 <g class="layer">
  <title>Layer 1</title>
  <g id="svg_5">
   <g id="svg_6">
    <path d="m200,55.5c102.4,15.2 166.33,-10 185.5,-24.5" fill="#ffffff" id="svg_3" stroke="black" stroke-opacity="0.1" stroke-width="25"/>
    <path d="m288.29,131.08c0,-14.5 5.2,-26.95 15.59,-37.34c10.39,-10.39 22.84,-15.58 37.34,-15.58c14.51,0 26.96,5.19 37.34,15.58c10.39,10.39 15.59,22.84 15.59,37.34c0,14.51 -5.2,26.96 -15.59,37.35c-10.38,10.39 -22.83,15.58 -37.34,15.58c-9.6,0 -18.43,-2.45 -26.46,-7.35c-8.04,-4.7 -14.51,-11.07 -19.41,-19.11c-4.7,-7.84 -7.06,-16.66 -7.06,-26.47zm335.2,0c0,-14.5 5.2,-26.95 15.59,-37.34c10.39,-10.39 22.83,-15.58 37.34,-15.58c14.51,0 26.95,5.19 37.34,15.58c10.39,10.39 15.59,22.84 15.59,37.34c0,14.51 -5.2,26.96 -15.59,37.35c-10.39,10.39 -22.83,15.58 -37.34,15.58c-9.6,0 -18.43,-2.45 -26.46,-7.35c-8.04,-4.7 -14.51,-11.07 -19.41,-19.11c-4.7,-7.84 -7.06,-16.66 -7.06,-26.47z" fill="black" fill-opacity="0.1" id="svg_1"/>
    <path d="m521.05,244.21c74.09,0 142.21,9.6 204.35,28.82c62.33,19.4 119.67,47.04 172.01,82.91l0,61.16c-19.41,-14.11 -43.32,-27.34 -71.75,-39.69c-28.22,-12.16 -59.29,-22.84 -93.2,-32.05c-33.72,-9.22 -68.61,-16.47 -104.68,-21.76c-36.07,-5.1 -71.65,-7.65 -106.73,-7.65c-46.66,0 -94,4.51 -142.02,13.53c-48.03,9.02 -92.62,21.17 -133.79,36.46c-41.16,15.29 -74.68,32.34 -100.56,51.16l0,-61.16c52.34,-35.87 109.58,-63.51 171.72,-82.91c62.33,-19.22 130.55,-28.82 204.65,-28.82z" fill="black" fill-opacity="0.1" id="svg_2"/>
    <path d="m806,55.32c-102.68,15.09 -166.78,-9.92 -186,-24.32" fill="#ffffff" id="svg_4" stroke="black" stroke-opacity="0.1" stroke-width="25"/>
   </g>
  </g>
 </g>
</svg>